<?xml version="1.0" encoding="utf-8"?>
<!-- Generator: Adobe Illustrator 19.1.1, SVG Export Plug-In . SVG Version: 6.00 Build 0)  -->
<svg version="1.1" id="Layer_1" xmlns="http://www.w3.org/2000/svg" xmlns:xlink="http://www.w3.org/1999/xlink" x="0px" y="0px"
	 viewBox="-149 342 312 109" style="enable-background:new -149 342 312 109;" xml:space="preserve">
<style type="text/css">
	.st0{fill:#00BF90;}
	.st1{fill:#FFE400;}
</style>
<g>
	<g>
		<g>
			<path class="st0" d="M-113.8,433.2c1.1-1,1.3-2.7,0.3-3.8l-16-18.4c-1-1.1-2.7-1.3-3.8-0.3l0,0c-1.1,1-1.3,2.7-0.3,3.8l15.9,18.4
				C-116.7,434.1-115,434.2-113.8,433.2L-113.8,433.2z"/>
			<path class="st0" d="M-118.7,437.4c1.1-1,1.3-2.7,0.3-3.8l-15.9-18.5c-1-1.1-2.7-1.3-3.8-0.3l0,0c-1.1,1-1.3,2.7-0.3,3.8
				l15.9,18.4C-121.5,438.2-119.8,438.3-118.7,437.4L-118.7,437.4z"/>
			<path class="st0" d="M-126.1,437.4c0.8-0.7,0.8-1.8,0.2-2.6l-10.8-12.4c-0.7-0.8-1.8-0.8-2.6-0.2l0,0c-0.7,0.7-0.8,1.8-0.1,2.6
				l10.7,12.4C-128,438-126.9,438.1-126.1,437.4L-126.1,437.4z"/>
		</g>
		<g>
			<path class="st0" d="M-117.8,409.9c0.1-0.1,7.4-6.7,11.6-11.5c0-0.1-0.1-0.3-0.1-0.4c-0.5-2,0.2-4.7,1.9-5.4
				c1.3-0.5,1.9,0,2.2,0.3c0.9,1.1,0,3.1-0.2,3.4c-0.4,0.7-1,1.4-1.7,2.3c0.2,0.2,0.5,0.2,0.8,0.2h0.1c1.2-2.6,4.5-5.3,7.1-5.1
				c1.8,0.2,2.2,0.9,2.2,1.6c0,1.9-5.2,4.2-8,5c-0.2,0.9-0.1,1.6,0.5,2c0.5,0.4,1.2,0.6,2.1,0.6c0.2-0.6,0.5-1.1,0.9-1.6
				c1.4-1.6,3.8-2.3,5.5-1.6c1,0.4,1.2,1.1,1.2,1.4c0,0.8-0.6,1.5-1.8,2.2c-1,0.6-2.6,1.1-4.1,1.3c0.1,0.2,0.1,0.4,0.2,0.5
				c0.3,0.5,0.6,0.8,1.1,1.2c3.5-1,6.3-1.5,7.3-1.2c0.6,0.2,0.8,0.7,0.8,0.8c0.3,1.3-0.4,2.4-1.8,3c-1.8,0.7-4.5,0.4-6.5-0.8
				c-5.4,1.6-12.3,4.3-15.4,7l-1.1-1.2c2.9-2.5,9.3-5.2,14.8-7c-0.3-0.3-0.5-0.6-0.7-0.9c-0.2-0.4-0.4-0.9-0.5-1.3
				c-1.1-0.1-2.2-0.3-3-0.9c-1-0.7-1.4-1.8-1.3-3.1c-0.6,0-1.1-0.3-1.5-0.6c-4.3,4.8-11.1,10.9-11.4,11.2L-117.8,409.9z
				 M-103.5,394.2c-0.1,0-0.1,0-0.2,0.1c-0.5,0.2-1,1.3-1,2.5c0.3-0.5,0.6-0.9,0.9-1.2C-103.6,395.2-103.5,394.5-103.5,394.2z
				 M-89.9,406.8c-0.7,0-2,0.2-3.7,0.6c1.1,0.2,2.3,0.2,3-0.1C-90.1,407.2-90,407-89.9,406.8z M-93.5,401.3c-1-0.4-2.6,0.1-3.5,1.2
				c-0.1,0.1-0.2,0.2-0.3,0.4c0.3-0.1,0.6-0.1,1-0.2C-94.8,402.2-93.9,401.7-93.5,401.3z M-95.8,395.6c-0.1,0-0.2,0-0.3,0
				c-1.3-0.1-3.2,1.1-4.5,2.6C-98.7,397.4-96.6,396.3-95.8,395.6z"/>
		</g>
	</g>
	<g>
		<path class="st1" d="M-98.1,416.9c6.2,0,11.3-2.5,15.3-7.4l8.1,8.4c-6.4,7.3-14,10.9-22.8,10.9c-8.7,0-15.9-2.8-21.6-8.3
			s-8.5-12.5-8.5-20.9s2.9-15.4,8.6-21.1c5.8-5.6,12.8-8.4,21.1-8.4c9.3,0,17.1,3.5,23.4,10.6l-7.9,8.9c-4-5-9-7.5-14.9-7.5
			c-4.8,0-8.8,1.6-12.2,4.7c-3.4,3.1-5.1,7.3-5.1,12.6c0,5.3,1.6,9.5,4.8,12.7C-106.5,415.3-102.7,416.9-98.1,416.9z"/>
		<path class="st0" d="M-57.8,371.4v41.4c0,1.7,0.4,3,1.3,3.9c0.9,0.9,1.9,1.4,3.1,1.4c2.3,0,4.2-1,5.8-3.1l4.5,8.5
			c-3.8,3.5-7.8,5.2-12,5.2s-7.7-1.4-10.6-4.1c-2.9-2.8-4.3-6.5-4.3-11.3v-42h12.2V371.4z"/>
		<path class="st0" d="M-20,418.8c2.3,0,4.6-0.6,6.8-1.7c2.2-1.2,3.9-2.7,5.2-4.7l7,7.5c-5.6,5.9-11.9,8.8-18.9,8.8
			s-12.6-2.1-16.8-6.4c-4.2-4.3-6.2-9.7-6.2-16.4c0-6.6,2.3-12,6.9-16.1s9.8-6.2,15.8-6.2c6,0,10.9,1.7,14.9,5c4,3.4,6.2,7.7,6.5,13
			v1.5l-29.1,12C-26,417.6-23.4,418.8-20,418.8z M-19.6,394.3c-3,0-5.6,1-7.9,2.9c-2.3,1.9-3.4,4.7-3.4,8.1c0,0.6,0,1.1,0.1,1.5
			l19-7.7C-12.6,395.9-15.1,394.3-19.6,394.3z"/>
		<path class="st0" d="M17.6,428.1L0.3,384.4H13l10.9,27.5l10.9-27.5h12.7l-17.3,43.7C30.2,428.1,17.6,428.1,17.6,428.1z"/>
		<path class="st0" d="M69.9,418.8c2.3,0,4.6-0.6,6.8-1.7c2.2-1.2,3.9-2.7,5.2-4.7l7,7.5c-5.6,5.9-11.9,8.8-18.9,8.8
			s-12.6-2.1-16.8-6.4C49,418,47,412.6,47,405.9c0-6.6,2.3-12,6.9-16.1c4.6-4.1,9.8-6.2,15.8-6.2s10.9,1.7,14.9,5
			c4,3.4,6.2,7.7,6.5,13v1.5l-29.1,12C63.9,417.6,66.5,418.8,69.9,418.8z M70.3,394.3c-3,0-5.6,1-7.9,2.9c-2.3,1.9-3.4,4.7-3.4,8.1
			c0,0.6,0,1.1,0.1,1.5l19-7.7C77.3,395.9,74.8,394.3,70.3,394.3z"/>
		<path class="st0" d="M118.7,395.2c-3.6,0-6.3,1.3-8.1,3.9c-1.8,2.6-2.7,6-2.7,10.2v18.9H95.7v-43.7h12.2v5.8
			c1.6-1.8,3.5-3.3,5.9-4.5c2.4-1.2,4.7-1.9,7.2-1.9l0.1,11.4L118.7,395.2L118.7,395.2z"/>
		<path class="st0" d="M148,395.2c-3.6,0-6.3,1.3-8.1,3.9c-1.8,2.6-2.7,6-2.7,10.2v18.9H125v-43.7h12.2v5.8c1.6-1.8,3.5-3.3,5.9-4.5
			c2.4-1.2,4.7-1.9,7.2-1.9l0.1,11.4L148,395.2L148,395.2z"/>
	</g>
	<g>
		<path class="st0" d="M-116.6,372c0.7-0.5,0.8-1.4,0.4-2l-4.6-6.6c-0.5-0.7-1.4-0.8-2-0.4c-0.7,0.5-0.8,1.4-0.4,2.1l4.6,6.6
			C-118.2,372.3-117.3,372.4-116.6,372z"/>
		<path class="st0" d="M-139.6,390.5c-0.8-0.1-1.6,0.4-1.7,1.2c-0.1,0.8,0.4,1.6,1.2,1.7l7.9,1.4c0.8,0.1,1.6-0.4,1.7-1.2
			c0.1-0.8-0.4-1.6-1.2-1.7L-139.6,390.5z"/>
		<path class="st0" d="M-105,433.7l-1.4,7.9c-0.1,0.8,0.4,1.6,1.2,1.7c0.8,0.1,1.6-0.4,1.7-1.2l1.4-7.9c0.1-0.8-0.4-1.6-1.2-1.7
			C-104.1,432.4-104.9,432.9-105,433.7z"/>
		<path class="st0" d="M-78.2,427c-0.7,0.5-0.8,1.4-0.4,2l4.6,6.6c0.5,0.7,1.4,0.8,2,0.4c0.7-0.5,0.8-1.4,0.4-2l-4.6-6.6
			C-76.6,426.7-77.6,426.6-78.2,427z"/>
		<path class="st0" d="M-89.9,365.3l1.4-7.9c0.1-0.8-0.4-1.6-1.2-1.7c-0.8-0.1-1.6,0.4-1.7,1.2l-1.4,7.9c-0.1,0.8,0.4,1.6,1.2,1.7
			C-90.8,366.6-90,366.1-89.9,365.3z"/>
	</g>
</g>
</svg>
