<?xml version="1.0" encoding="utf-8"?>
<!-- Generator: Adobe Illustrator 19.0.0, SVG Export Plug-In . SVG Version: 6.00 Build 0)  -->
<svg version="1.1" id="Layer_1" xmlns="http://www.w3.org/2000/svg" xmlns:xlink="http://www.w3.org/1999/xlink" x="0px" y="0px"
	 viewBox="0 0 312 109" enable-background="new 0 0 312 109" xml:space="preserve">
<g>
	<g>
		<g>
			<path fill="#00BF90" d="M35.2,91.2c1.1-1,1.3-2.7,0.3-3.8L19.5,69c-1-1.1-2.7-1.3-3.8-0.3l0,0c-1.1,1-1.3,2.7-0.3,3.8l15.9,18.4
				C32.3,92.1,34,92.2,35.2,91.2L35.2,91.2z"/>
			<path fill="#00BF90" d="M30.3,95.4c1.1-1,1.3-2.7,0.3-3.8L14.7,73.1c-1-1.1-2.7-1.3-3.8-0.3l0,0c-1.1,1-1.3,2.7-0.3,3.8
				l15.9,18.4C27.5,96.2,29.2,96.3,30.3,95.4L30.3,95.4z"/>
			<path fill="#00BF90" d="M22.9,95.4c0.8-0.7,0.8-1.8,0.2-2.6L12.3,80.4c-0.7-0.8-1.8-0.8-2.6-0.2l0,0C9,80.9,8.9,82,9.6,82.8
				l10.7,12.4C21,96,22.1,96.1,22.9,95.4L22.9,95.4z"/>
		</g>
		<g>
			<path fill="#00BF90" d="M31.2,67.9c0.1-0.1,7.4-6.7,11.6-11.5c0-0.1-0.1-0.3-0.1-0.4c-0.5-2,0.2-4.7,1.9-5.4
				c1.3-0.5,1.9,0,2.2,0.3c0.9,1.1,0,3.1-0.2,3.4c-0.4,0.7-1,1.4-1.7,2.3c0.2,0.2,0.5,0.2,0.8,0.2c0,0,0.1,0,0.1,0
				c1.2-2.6,4.5-5.3,7.1-5.1c1.8,0.2,2.2,0.9,2.2,1.6c0,1.9-5.2,4.2-8,5c-0.2,0.9-0.1,1.6,0.5,2c0.5,0.4,1.2,0.6,2.1,0.6
				c0.2-0.6,0.5-1.1,0.9-1.6c1.4-1.6,3.8-2.3,5.5-1.6c1,0.4,1.2,1.1,1.2,1.4c0,0.8-0.6,1.5-1.8,2.2c-1,0.6-2.6,1.1-4.1,1.3
				c0.1,0.2,0.1,0.4,0.2,0.5c0.3,0.5,0.6,0.8,1.1,1.2c3.5-1,6.3-1.5,7.3-1.2c0.6,0.2,0.8,0.7,0.8,0.8c0.3,1.3-0.4,2.4-1.8,3
				c-1.8,0.7-4.5,0.4-6.5-0.8c-5.4,1.6-12.3,4.3-15.4,7L36,71.9c2.9-2.5,9.3-5.2,14.8-7c-0.3-0.3-0.5-0.6-0.7-0.9
				c-0.2-0.4-0.4-0.9-0.5-1.3c-1.1-0.1-2.2-0.3-3-0.9c-1-0.7-1.4-1.8-1.3-3.1c-0.6,0-1.1-0.3-1.5-0.6c-4.3,4.8-11.1,10.9-11.4,11.2
				L31.2,67.9z M45.5,52.2c-0.1,0-0.1,0-0.2,0.1c-0.5,0.2-1,1.3-1,2.5c0.3-0.5,0.6-0.9,0.9-1.2C45.4,53.2,45.5,52.5,45.5,52.2z
				 M59.1,64.8c-0.7,0-2,0.2-3.7,0.6c1.1,0.2,2.3,0.2,3-0.1C58.9,65.2,59,65,59.1,64.8z M55.5,59.3c-1-0.4-2.6,0.1-3.5,1.2
				c-0.1,0.1-0.2,0.2-0.3,0.4c0.3-0.1,0.6-0.1,1-0.2C54.2,60.2,55.1,59.7,55.5,59.3z M53.2,53.6c-0.1,0-0.2,0-0.3,0
				c-1.3-0.1-3.2,1.1-4.5,2.6C50.3,55.4,52.4,54.3,53.2,53.6z"/>
		</g>
	</g>
	<g>
		<path fill="#58595B" d="M50.9,74.9c6.2,0,11.3-2.5,15.3-7.4l8.1,8.4c-6.4,7.3-14,10.9-22.8,10.9c-8.7,0-15.9-2.8-21.6-8.3
			C24.2,73,21.4,66,21.4,57.6c0-8.4,2.9-15.4,8.6-21.1c5.8-5.6,12.8-8.4,21.1-8.4c9.3,0,17.1,3.5,23.4,10.6l-7.9,8.9
			c-4-5-9-7.5-14.9-7.5c-4.8,0-8.8,1.6-12.2,4.7c-3.4,3.1-5.1,7.3-5.1,12.6c0,5.3,1.6,9.5,4.8,12.7C42.5,73.3,46.3,74.9,50.9,74.9z"
			/>
		<path fill="#00BF90" d="M91.2,29.4v41.4c0,1.7,0.4,3,1.3,3.9c0.9,0.9,1.9,1.4,3.1,1.4c2.3,0,4.2-1,5.8-3.1l4.5,8.5
			c-3.8,3.5-7.8,5.2-12,5.2c-4.2,0-7.7-1.4-10.6-4.1c-2.9-2.8-4.3-6.5-4.3-11.3v-42H91.2z"/>
		<path fill="#00BF90" d="M129,76.8c2.3,0,4.6-0.6,6.8-1.7c2.2-1.2,3.9-2.7,5.2-4.7l7,7.5c-5.6,5.9-11.9,8.8-18.9,8.8
			c-7,0-12.6-2.1-16.8-6.4c-4.2-4.3-6.2-9.7-6.2-16.4c0-6.6,2.3-12,6.9-16.1c4.6-4.1,9.8-6.2,15.8-6.2c6,0,10.9,1.7,14.9,5
			c4,3.4,6.2,7.7,6.5,13v1.5l-29.1,12C123,75.6,125.6,76.8,129,76.8z M129.4,52.3c-3,0-5.6,1-7.9,2.9c-2.3,1.9-3.4,4.7-3.4,8.1
			c0,0.6,0,1.1,0.1,1.5l19-7.7C136.4,53.9,133.9,52.3,129.4,52.3z"/>
		<path fill="#00BF90" d="M166.6,86.1l-17.3-43.7H162l10.9,27.5l10.9-27.5h12.7l-17.3,43.7H166.6z"/>
		<path fill="#00BF90" d="M218.9,76.8c2.3,0,4.6-0.6,6.8-1.7c2.2-1.2,3.9-2.7,5.2-4.7l7,7.5c-5.6,5.9-11.9,8.8-18.9,8.8
			c-7,0-12.6-2.1-16.8-6.4c-4.2-4.3-6.2-9.7-6.2-16.4c0-6.6,2.3-12,6.9-16.1c4.6-4.1,9.8-6.2,15.8-6.2c6,0,10.9,1.7,14.9,5
			c4,3.4,6.2,7.7,6.5,13v1.5l-29.1,12C212.9,75.6,215.5,76.8,218.9,76.8z M219.3,52.3c-3,0-5.6,1-7.9,2.9c-2.3,1.9-3.4,4.7-3.4,8.1
			c0,0.6,0,1.1,0.1,1.5l19-7.7C226.3,53.9,223.8,52.3,219.3,52.3z"/>
		<path fill="#00BF90" d="M267.7,53.2c-3.6,0-6.3,1.3-8.1,3.9c-1.8,2.6-2.7,6-2.7,10.2v18.9h-12.2V42.5h12.2v5.8
			c1.6-1.8,3.5-3.3,5.9-4.5c2.4-1.2,4.7-1.9,7.2-1.9l0.1,11.4H267.7z"/>
		<path fill="#00BF90" d="M297,53.2c-3.6,0-6.3,1.3-8.1,3.9c-1.8,2.6-2.7,6-2.7,10.2v18.9H274V42.5h12.2v5.8
			c1.6-1.8,3.5-3.3,5.9-4.5c2.4-1.2,4.7-1.9,7.2-1.9l0.1,11.4H297z"/>
	</g>
	<g>
		<path fill="#00BF90" d="M32.4,30c0.7-0.5,0.8-1.4,0.4-2l-4.6-6.6c-0.5-0.7-1.4-0.8-2-0.4c-0.7,0.5-0.8,1.4-0.4,2.1l4.6,6.6
			C30.8,30.3,31.7,30.4,32.4,30z"/>
		<path fill="#00BF90" d="M9.4,48.5c-0.8-0.1-1.6,0.4-1.7,1.2c-0.1,0.8,0.4,1.6,1.2,1.7l7.9,1.4c0.8,0.1,1.6-0.4,1.7-1.2
			c0.1-0.8-0.4-1.6-1.2-1.7L9.4,48.5z"/>
		<path fill="#00BF90" d="M44,91.7l-1.4,7.9c-0.1,0.8,0.4,1.6,1.2,1.7c0.8,0.1,1.6-0.4,1.7-1.2l1.4-7.9c0.1-0.8-0.4-1.6-1.2-1.7
			C44.9,90.4,44.1,90.9,44,91.7z"/>
		<path fill="#00BF90" d="M70.8,85c-0.7,0.5-0.8,1.4-0.4,2l4.6,6.6c0.5,0.7,1.4,0.8,2,0.4c0.7-0.5,0.8-1.4,0.4-2l-4.6-6.6
			C72.4,84.7,71.4,84.6,70.8,85z"/>
		<path fill="#00BF90" d="M59.1,23.3l1.4-7.9c0.1-0.8-0.4-1.6-1.2-1.7c-0.8-0.1-1.6,0.4-1.7,1.2l-1.4,7.9c-0.1,0.8,0.4,1.6,1.2,1.7
			C58.2,24.6,59,24.1,59.1,23.3z"/>
	</g>
</g>
</svg>
